# xmcd
#
# Track frame offsets: 
#        150
#        12907
#        24467
#        33205
#        44452
#        59697
#        72257
#        85367
#        96930
#        111012
#        124080
#        136415
#        154257
#        166377
#        178235
#
# Disc length: 2571 seconds
#
# Revision: 3
# Processed by: cddbd v1.5.2PL0 Copyright (c) Steve Scherf et al.
# Submitted via: ExactAudioCopyFreeDBPlugin 1.0
#
DISCID=ce0a090f
DTITLE=King Curtis - Piping Hot:  The Complete Enjoy Sessions
DYEAR=1995
DGENRE=Rhythm and Blues
TTITLE0=Soul Twist
TTITLE1=Harmonica Twist
TTITLE2=The Monkey Shout (mono)
TTITLE3=What'd I Say, Part 1
TTITLE4=What'd I Say, Part 2
TTITLE5=Twistin' with the King
TTITLE6=Irresistable You
TTITLE7=Wobble Twist
TTITLE8=Mr. Crow
TTITLE9=I Know (You Don't Love Me No More)
TTITLE10=Twistin' Time (mono)
TTITLE11=Piping Hot
TTITLE12=Sack o' Woe
TTITLE13=Get with It (mono)
TTITLE14=Soul Twist (alternate take 7)
EXTD=
EXTT0=
EXTT1=
EXTT2=
EXTT3=
EXTT4=
EXTT5=
EXTT6=
EXTT7=
EXTT8=
EXTT9=
EXTT10=
EXTT11=
EXTT12=
EXTT13=
EXTT14=
PLAYORDER=
